<?xml version="1.0" encoding="UTF-8" standalone="no"?>
<!-- Created with Inkscape (http://www.inkscape.org/) -->

<svg
   width="323.47812mm"
   height="231.13402mm"
   viewBox="0 0 323.47812 231.13402"
   version="1.1"
   id="svg1"
   xml:space="preserve"
   inkscape:version="1.4 (86a8ad7, 2024-10-11)"
   sodipodi:docname="JMC-1stFloor.svg"
   xmlns:inkscape="http://www.inkscape.org/namespaces/inkscape"
   xmlns:sodipodi="http://sodipodi.sourceforge.net/DTD/sodipodi-0.dtd"
   xmlns="http://www.w3.org/2000/svg"
   xmlns:svg="http://www.w3.org/2000/svg"><sodipodi:namedview
     id="namedview1"
     pagecolor="#ffffff"
     bordercolor="#000000"
     borderopacity="0.25"
     inkscape:showpageshadow="2"
     inkscape:pageopacity="0.0"
     inkscape:pagecheckerboard="0"
     inkscape:deskcolor="#d1d1d1"
     inkscape:document-units="mm"
     inkscape:zoom="0.56390993"
     inkscape:cx="625.98649"
     inkscape:cy="440.67321"
     inkscape:window-width="1440"
     inkscape:window-height="877"
     inkscape:window-x="-8"
     inkscape:window-y="-8"
     inkscape:window-maximized="1"
     inkscape:current-layer="layer1" /><defs
     id="defs1" /><g
     inkscape:label="Layer 1"
     inkscape:groupmode="layer"
     id="layer1"
     transform="translate(282.4199,-9.1633208)"><path
       style="fill:none;stroke:#000000;stroke-width:0.667533"
       d="m -37.165269,9.5875023 16.885205,-0.00106"
       id="path8"
       transform="translate(1.25e-6)" /><path
       style="fill:none;stroke:#000000;stroke-width:0.667533"
       d="m -227.65814,9.5884548 h 16.89097"
       id="path9"
       transform="translate(1.25e-6)" /><path
       style="fill:none;stroke:#000000;stroke-width:0.665156;stroke-dasharray:none"
       d="M 41.058219,222.13347 H -159.46569"
       id="path10" /><path
       style="fill:none;stroke:#000000;stroke-width:0.665;stroke-dasharray:none"
       d="m -227.32579,239.96269 h 68.5251"
       id="path11" /><path
       style="fill:none;stroke:#000000;stroke-width:0.665;stroke-dasharray:none"
       d="M -159.13319,240.29519 V 221.79952"
       id="path12" /><path
       style="display:inline;fill:none;stroke:#000000;stroke-width:0.208925;stroke-dasharray:none"
       d="M 40.72227,126.02541 V 85.374695"
       id="path14" /><path
       style="fill:none;stroke:#000000;stroke-width:0.3;stroke-dasharray:none"
       d="m 40.722256,85.524695 h -6.3187"
       id="path15" /><path
       style="fill:none;stroke:#000000;stroke-width:0.3;stroke-dasharray:none"
       d="m 40.722256,125.87541 h -6.3187"
       id="path16" /><path
       style="fill:none;stroke:#000000;stroke-width:0.3;stroke-dasharray:none"
       d="m 40.722256,128.69057 h -6.3187"
       id="path17" /><path
       style="fill:none;stroke:#000000;stroke-width:0.3;stroke-dasharray:none"
       d="m 40.722256,169.04128 h -6.3187"
       id="path18" /><path
       style="display:inline;fill:none;stroke:#000000;stroke-width:0.208925;stroke-dasharray:none"
       d="M 40.72227,169.19129 V 128.54057"
       id="path19" /><path
       style="fill:none;stroke:#000000;stroke-width:0.2;stroke-dasharray:none"
       d="m 34.403556,85.524695 c -0.396136,6.881516 0.756257,13.606635 5.36486,20.175355"
       id="path20"
       sodipodi:nodetypes="cc" /><path
       style="fill:none;stroke:#000000;stroke-width:0.2;stroke-dasharray:none"
       d="m 34.403556,125.87541 c -0.396136,-6.88152 0.756257,-13.60664 5.36486,-20.17536"
       id="path21"
       sodipodi:nodetypes="cc" /><path
       style="fill:none;stroke:#000000;stroke-width:0.2;stroke-dasharray:none"
       d="m 34.403556,128.69057 c -0.396136,6.88152 0.756257,13.60664 5.36486,20.17536"
       id="path22"
       sodipodi:nodetypes="cc" /><path
       style="fill:none;stroke:#000000;stroke-width:0.2;stroke-dasharray:none"
       d="m 34.403556,169.04129 c -0.396136,-6.88152 0.756257,-13.60664 5.36486,-20.17536"
       id="path23"
       sodipodi:nodetypes="cc" /><path
       style="fill:none;stroke:#000000;stroke-width:0.665;stroke-dasharray:none"
       d="M 40.72227,222.13347 V 169.19129"
       id="path24" /><path
       style="fill:none;stroke:#000000;stroke-width:0.665;stroke-dasharray:none"
       d="m 40.724452,75.75164 v 9.623055"
       id="path25" /><path
       style="fill:none;stroke:#000000;stroke-width:0.665;stroke-dasharray:none"
       d="m 40.724452,126.02541 v 2.51516"
       id="path26" /><rect
       style="fill:none;stroke:#000000;stroke-width:0.660631"
       id="rect8"
       width="61.004513"
       height="66.165245"
       x="-20.28006"
       y="9.5863943"
       inkscape:label="room-203"
       transform="translate(1.25e-6)" /><rect
       style="fill:none;stroke:#000000;stroke-width:0.672323"
       id="rect6"
       width="59.857594"
       height="66.158287"
       x="-97.022858"
       y="9.5875044"
       inkscape:label="room-202"
       transform="translate(1.25e-6)" /><rect
       style="fill:none;stroke:#000000;stroke-width:0.652593"
       id="rect13"
       width="28.722733"
       height="48.5247"
       x="-125.74559"
       y="9.4896173"
       inkscape:label="cr-male"
       transform="translate(1.25e-6)" /><rect
       style="display:inline;fill:none;stroke:#000000;stroke-width:0.469852"
       id="rect12"
       width="27.878689"
       height="48.524696"
       x="-153.62428"
       y="-58.014317"
       transform="matrix(1,0,0,-1,1.25e-6,1.3125e-7)"
       inkscape:label="cr-female" /><rect
       style="fill:none;stroke:#000000;stroke-width:0.667533"
       id="rect4"
       width="57.241711"
       height="66.156395"
       x="-210.76717"
       y="9.5884571"
       inkscape:label="room-201"
       transform="translate(1.25e-6)" /><rect
       style="fill:none;stroke:#000000;stroke-width:0.667533"
       id="rect1"
       width="54.426537"
       height="67.094788"
       x="-282.08469"
       y="9.5884571"
       inkscape:label="library"
       transform="translate(1.25e-6)" /><rect
       style="fill:none;stroke:#000000;stroke-width:0.670429"
       id="rect2"
       width="54.426548"
       height="82.578201"
       x="-282.08469"
       y="76.683243"
       inkscape:label="library"
       transform="translate(1.25e-6)" /><rect
       style="display:inline;fill:none;stroke:#000000;stroke-width:0.664674"
       id="rect3"
       width="54.426556"
       height="80.701424"
       x="-282.08469"
       y="159.26143"
       inkscape:label="library"
       transform="translate(1.25e-6)" /><g
       id="g52"><path
         style="display:inline;fill:#1a1a1a;stroke:#000000;stroke-width:0.665001;stroke-dasharray:none"
         d="m -38.568608,221.80089 -111.972532,0.33258 V 101.06374 h 80.197066 v 44.37182 l 31.775466,0.4026 z"
         id="path32" /><path
         style="display:inline;fill:none;stroke:#000000;stroke-width:0.665001;stroke-dasharray:none"
         d="m -70.344076,101.06374 h 31.775471 l -3e-6,36.54152"
         id="path33" /><path
         style="display:inline;fill:none;stroke:#000000;stroke-width:0.265;stroke-dasharray:none"
         d="m -54.456345,136.07303 h -15.887731 v -2.94446 h 31.775468 v -2.86152 h -31.775468 v -3.06888 h 31.775468 l 3e-6,-2.86152 h -31.775471 v -2.98593 h 31.775471 l -3e-6,-3.01113 h -31.775468 l 2e-6,-3.21916 h 31.775461"
         id="path34" /><path
         style="display:inline;fill:none;stroke:#000000;stroke-width:1.465;stroke-dasharray:none"
         d="m -54.456347,115.12043 5e-6,30.31513"
         id="path35" /><path
         style="display:inline;fill:none;stroke:#000000;stroke-width:0.350385;stroke-dasharray:none"
         d="m -180.40282,216.32065 h -21.58145 v -3.78952 h 43.16289 v -3.68278 h -43.16289 v -3.94966 h 43.16289 l 1e-5,-3.68278 h -43.1629 v -3.8429 h 43.1629 l -1e-5,-3.87533 h -43.16289 v -4.14306 h 43.16289"
         id="path45" /><path
         style="display:inline;fill:#ffffff;stroke:#000000;stroke-width:0.665001;stroke-dasharray:none"
         d="m -181.35784,222.13347 v -32.79954 h 1.91003 v 32.79954 z"
         id="path44" /><path
         style="fill:none;stroke:#000000;stroke-width:0.665001;stroke-dasharray:none"
         d="m -150.54114,101.06374 h -51.46383 v 80.0593 h 43.18359 l -0.31181,40.67648"
         id="path51" /><path
         style="fill:none;stroke:#000000;stroke-width:0.665001;stroke-dasharray:none"
         d="m -202.00497,181.12304 0.0207,41.01043 h 20.62643"
         id="path52" /></g></g></svg>
